<svg xmlns="http://www.w3.org/2000/svg" height="775pt" version="1.1" viewBox="-1 -13 775.0013 775" width="775pt">
<g id="surface1">
<path d="M 770.289062 102.734375 L 645.296875 2.738281 C 643.082031 0.960938 640.324219 0 637.484375 0 L 137.515625 0 C 134.679688 0 131.921875 0.960938 129.703125 2.738281 L 4.710938 102.734375 C 0.710938 105.898438 -0.949219 111.179688 0.535156 116.0625 C 2.019531 120.941406 6.34375 124.414062 11.425781 124.816406 L 240.972656 354.367188 C 190.972656 396.90625 162.269531 459.324219 162.515625 524.96875 C 162.515625 649.222656 263.246094 749.957031 387.5 749.957031 C 511.757812 749.957031 612.488281 649.222656 612.488281 524.96875 C 612.730469 459.320312 584.027344 396.902344 534.03125 354.355469 L 763.578125 124.816406 C 768.660156 124.414062 772.980469 120.941406 774.464844 116.0625 C 775.949219 111.179688 774.289062 105.898438 770.289062 102.734375 Z M 440.5 306.40625 L 621.910156 124.992188 L 728.054688 124.992188 L 513.980469 339.066406 C 491.667969 323.808594 466.773438 312.746094 440.5 306.40625 Z M 261.027344 339.066406 L 46.945312 124.992188 L 153.089844 124.992188 L 334.519531 306.421875 C 308.242188 312.75 283.34375 323.8125 261.027344 339.066406 Z M 364.777344 301.320312 L 188.441406 124.992188 L 586.5625 124.992188 L 410.234375 301.332031 C 395.121094 299.714844 379.878906 299.714844 364.769531 301.320312 Z M 141.90625 25 L 633.121094 25 L 726.863281 99.996094 L 48.160156 99.996094 Z M 587.488281 524.96875 C 587.53125 618.976562 522.097656 700.324219 430.273438 720.425781 C 338.4375 740.53125 245.003906 693.964844 205.769531 608.539062 C 166.527344 523.113281 192.082031 421.894531 267.171875 365.332031 C 294.785156 344.359375 327.445312 331.046875 361.851562 326.742188 C 378.9375 324.375 396.265625 324.375 413.347656 326.742188 C 512.933594 339.726562 587.445312 424.539062 587.488281 524.96875 Z M 587.488281 524.96875 " style=" stroke:none;fill-rule:nonzero;fill:rgb(0%,0%,0%);fill-opacity:1;" />
<path d="M 492.742188 385.25 C 468.5 366.90625 439.851562 355.273438 409.6875 351.503906 C 394.757812 349.441406 379.617188 349.46875 364.683594 351.578125 C 277.648438 363.019531 212.566406 437.179688 212.511719 524.96875 C 212.46875 607.234375 269.734375 678.410156 350.09375 696.003906 C 430.453125 713.585938 512.210938 672.820312 546.535156 598.058594 C 580.851562 523.292969 558.46875 434.726562 492.742188 385.25 Z M 387.5 674.960938 C 323.003906 674.984375 265.714844 633.75 245.257812 572.582031 C 224.808594 511.421875 245.761719 444.023438 297.296875 405.234375 C 317.886719 389.558594 342.257812 379.597656 367.941406 376.351562 C 374.421875 375.445312 380.957031 374.988281 387.5 374.976562 C 393.832031 374.957031 400.15625 375.375 406.441406 376.226562 C 481.328125 385.761719 537.46875 449.472656 537.492188 524.96875 C 537.398438 607.773438 470.304688 674.867188 387.5 674.960938 Z M 387.5 674.960938 " style=" stroke:none;fill-rule:nonzero;fill:rgb(0%,0%,0%);fill-opacity:1;" />
<path d="M 400 437.472656 C 400 432.421875 396.953125 427.859375 392.285156 425.925781 C 387.617188 423.992188 382.238281 425.066406 378.664062 428.636719 L 328.667969 478.632812 L 346.339844 496.308594 L 375 467.648438 L 375 599.964844 L 350.003906 599.964844 L 350.003906 624.964844 L 425 624.964844 L 425 599.964844 L 400 599.964844 Z M 400 437.472656 " style=" stroke:none;fill-rule:nonzero;fill:rgb(0%,0%,0%);fill-opacity:1;" />
</g>
</svg>