<svg height="512pt" viewBox="-6 0 512 512.0003" width="512pt" xmlns="http://www.w3.org/2000/svg"><path d="m421.765625 244.492188h-33.4375c-3.175781 0-6.28125-.25-9.394531-.472657-67.59375-4.960937-119.9375-61.191406-120.042969-128.964843v-89.167969c0-14.296875-11.589844-25.886719-25.886719-25.886719-2.453125 0-4.894531.347656-7.25 1.035156l-122.878906 35.835938c-40.402344 11.957031-68.179688 48.996094-68.34375 91.125v271.824218c0 4.765626 3.863281 8.628907 8.628906 8.628907h51.773438v25.886719c0 14.296874-11.589844 25.886718-25.886719 25.886718h-42.222656c-12.878907-.164062-24.027344 8.925782-26.457031 21.574219-2.382813 14.097656 7.113281 27.457031 21.210937 29.839844 1.425781.242187 2.875.363281 4.320313.363281h361.042968c25.964844-.050781 50.796875-10.636719 68.808594-29.339844 17.359375-18.402344 21.316406-45.714844 9.898438-68.292968l-2.953126-5.917969h29.183594c4.765625 0 8.628906-3.863281 8.628906-8.628907v-76.585937c-.046874-43.46875-35.273437-78.695313-78.742187-78.742187zm0 17.257812c33.941406.039062 61.445313 27.542969 61.484375 61.484375v33.4375h-240.21875l-76.335938-25.4375c-.878906-.296875-1.800781-.445313-2.726562-.449219h-112.179688v-60.914062c39.277344-4.429688 68.980469-37.625 69.035157-77.152344v-143.101562l77.660156-22.652344v125.496094c.09375 80.980468 65.71875 146.609374 146.699219 146.699218 13.910156.011719 26.5-8.246094 32.03125-21.011718l7.171875-16.5625c1.328125 0 2.589843.199218 3.941406.199218zm-195.667969-58.675781 32.621094-19.574219c2.613281 4.957031 5.507812 9.761719 8.664062 14.394531l-28.339843 28.390625c-5.097657-7.273437-9.4375-15.050781-12.945313-23.210937zm-10.355468-85.257813 25.890624-5.179687v2.417969c.019532 5.554687.359376 11.101562 1.007813 16.617187l-26.894531 10.761719v-24.617188zm4.652343 68.515625c-2.261719-8.328125-3.675781-16.863281-4.226562-25.472656l29.597656-11.839844c1.503906 6.332031 3.4375 12.558594 5.78125 18.628907zm21.238281-91.296875-25.890624 5.175782v-21.226563l25.890624-5.179687zm83.269532 152.097656-17.464844 29.117188c-8.28125-2.515625-16.285156-5.863281-23.894531-9.984375l22.4375-29.902344c6.035156 4.050781 12.359375 7.652344 18.921875 10.769531zm16.136718 6.652344c8.21875 2.789063 16.667969 4.839844 25.25 6.128906l-4.910156 11.328126c-2.789062 6.46875-9.152344 10.65625-16.195312 10.660156-6.695313-.058594-13.378906-.636719-19.984375-1.726563zm-48.675781-28.035156-23.117187 30.824219c-.078125.113281-.09375.25-.164063.363281-6.941406-5.074219-13.359375-10.820312-19.164062-17.15625l28.214843-28.207031c4.414063 5.042969 9.167969 9.78125 14.230469 14.175781zm-61.777343-208.144531c4.574218-1.335938 9.367187 1.289062 10.699218 5.867187.230469.785156.347656 1.597656.347656 2.414063v30.316406l-25.890624 5.175781v-39.441406zm-127.023438 37.234375v137.878906c-.035156 30-22.082031 55.425781-51.773438 59.714844v-124.4375c.140626-32.851563 20.839844-62.097656 51.773438-73.15625zm346.648438 367.234375c8.175781 16.042969 5.414062 35.492187-6.90625 48.625-14.75 15.324219-35.09375 24-56.363282 24.042969h-361.042968c-4.765626.007812-8.632813-3.851563-8.640626-8.617188 0-.511719.042969-1.019531.132813-1.523438 1.0625-4.308593 5-7.28125 9.433594-7.117187h42.222656c23.816406-.03125 43.117187-19.332031 43.144531-43.148437v-25.886719h17.261719v25.886719c.027344 23.816406 19.328125 43.117187 43.144531 43.148437h94.921875c23.816407-.03125 43.117188-19.332031 43.144531-43.148437v-25.886719h17.261719v25.886719c.027344 23.816406 19.328125 43.117187 43.144531 43.148437h18.121094c13.335938-.015625 26.070313-5.542969 35.191406-15.265625 10.332032-11.246094 11.996094-27.960938 4.089844-41.023438l-7.644531-12.746093h22.574219zm-286.242188-13.625c4.765625 0 8.628906-3.863281 8.628906-8.628907v-13.910156l66.308594 22.089844c.878906.296875 1.796875.445312 2.726562.449219h51.773438v25.886719c0 14.296874-11.589844 25.890624-25.886719 25.890624h-94.921875c-14.296875 0-25.886718-11.59375-25.886718-25.890624v-25.886719zm236.734375 0 12.945313 21.625c3.957031 6.449219 3.183593 14.738281-1.898438 20.347656-5.851562 6.230469-14.011719 9.777344-22.558594 9.800781h-18.121094c-14.296874 0-25.886718-11.589844-25.886718-25.886718v-25.886719zm82.546875-17.257813h-240.21875l-76.335938-25.441406c-2.625-.890625-5.523437-.453125-7.765624 1.175781-2.253907 1.621094-3.589844 4.226563-3.589844 7.003907v17.261718h-103.550782v-43.148437h110.78125l76.335938 25.441406c.878906.292969 1.800781.445313 2.726562.445313h241.617188zm0 0"/><path d="m198.167969 324.171875 4.960937-16.53125 17.050782 5.117187-4.960938 16.527344zm0 0"/><path d="m164.066406 313.949219 4.960938-16.527344 17.050781 5.113281-4.960937 16.53125zm0 0"/><path d="m131.074219 296.269531h17.800781v17.257813h-17.800781zm0 0"/><path d="m232.269531 334.402344 15.515625 4.648437 4.082032.363281v-13.980468l.871093-2.914063-15.515625-4.652343zm0 0"/><path d="m95.476562 296.269531h17.804688v17.257813h-17.804688zm0 0"/><path d="m412.058594 322.15625h17.804687v17.257812h-17.804687zm0 0"/><path d="m269.667969 322.15625h17.800781v17.257812h-17.800781zm0 0"/><path d="m376.457031 322.15625h17.800781v17.257812h-17.800781zm0 0"/><path d="m447.65625 322.15625h17.800781v17.257812h-17.800781zm0 0"/><path d="m305.265625 322.15625h17.800781v17.257812h-17.800781zm0 0"/><path d="m340.859375 322.15625h17.800781v17.257812h-17.800781zm0 0"/><path d="m60.417969 296.269531h17.257812v17.257813h-17.257812zm0 0"/></svg>