<?xml version="1.0" encoding="UTF-8"?><!DOCTYPE svg PUBLIC "-//W3C//DTD SVG 1.1//EN" "http://www.w3.org/Graphics/SVG/1.1/DTD/svg11.dtd"><svg xmlns="http://www.w3.org/2000/svg"><symbol id="icon-facebook" viewBox="0 0 10 19">
    <title>
        facebook
    </title>
    <path d="M9.766.157v2.946H8.014c-.64 0-1.071.134-1.295.402-.223.268-.335.67-.335 1.205v2.11h3.27l-.435 3.303H6.384v8.471H2.97v-8.47H.123V6.82H2.97V4.387c0-1.384.387-2.457 1.161-3.22C4.904.404 5.934.023 7.222.023c1.093 0 1.941.045 2.544.134z" fill-rule="evenodd"/>
</symbol><symbol id="icon-first" viewBox="-1 -13 775.0013 775">
    <path d="M770.29 102.734L645.296 2.738A12.479 12.479 0 0 0 637.484 0H137.516c-2.836 0-5.594.96-7.813 2.738L4.711 102.734c-4 3.164-5.66 8.446-4.176 13.329a12.409 12.409 0 0 0 10.89 8.753l229.548 229.551a222.894 222.894 0 0 0-78.457 170.602c0 124.254 100.73 224.988 224.984 224.988 124.258 0 224.988-100.734 224.988-224.988a222.95 222.95 0 0 0-78.457-170.614l229.547-229.539a12.404 12.404 0 0 0 10.887-8.754 12.392 12.392 0 0 0-4.176-13.328zM440.5 306.406l181.41-181.414h106.145L513.98 339.066a222.71 222.71 0 0 0-73.48-32.66zm-179.473 32.66L46.945 124.992H153.09l181.43 181.43a222.574 222.574 0 0 0-73.493 32.644zm103.75-37.746L188.441 124.992h398.121l-176.328 176.34a214.409 214.409 0 0 0-45.464-.012zM141.907 25H633.12l93.742 74.996H48.16zm445.581 499.969c.043 94.008-65.39 175.355-157.215 195.457-91.836 20.105-185.27-26.461-224.503-111.887-39.243-85.426-13.688-186.644 61.402-243.207a196.967 196.967 0 0 1 94.68-38.59 187.596 187.596 0 0 1 51.496 0c99.586 12.985 174.097 97.797 174.14 198.227zm0 0"/>
    <path d="M492.742 385.25a173.244 173.244 0 0 0-83.055-33.746 162.609 162.609 0 0 0-45.003.074c-87.036 11.442-152.118 85.602-152.172 173.39-.043 82.266 57.222 153.442 137.582 171.036 80.36 17.582 162.117-23.184 196.441-97.945 34.317-74.766 11.934-163.332-53.793-212.809zM387.5 674.96c-64.496.024-121.785-41.21-142.242-102.378-20.45-61.16.504-128.559 52.039-167.348a147.06 147.06 0 0 1 70.644-28.882 143.071 143.071 0 0 1 19.559-1.375c6.332-.02 12.656.398 18.941 1.25 74.887 9.535 131.028 73.246 131.051 148.742-.094 82.804-67.187 149.898-149.992 149.992zm0 0"/>
    <path d="M400 437.473c0-5.051-3.047-9.614-7.715-11.547a12.51 12.51 0 0 0-13.62 2.71l-49.997 49.997 17.672 17.676 28.66-28.66v132.316h-24.996v25H425v-25h-25zm0 0"/>
</symbol><symbol id="icon-friendship" viewBox="0 0 512 512">
    <path d="M424.16 222.53a7.501 7.501 0 0 0-9.77 4.131c-4.204 10.365-14.159 17.063-25.362 17.063-7.306 0-14.185-2.849-19.363-8.015a27.023 27.023 0 0 1-5.995-9.037 7.5 7.5 0 0 0-9.763-4.147 7.5 7.5 0 0 0-4.148 9.762 41.952 41.952 0 0 0 9.306 14.035c8.016 7.998 18.657 12.402 29.963 12.402 17.34 0 32.752-10.373 39.263-26.425a7.5 7.5 0 0 0-4.131-9.769z"/>
    <path d="M345.923 171.145a7.5 7.5 0 0 0-7.5 7.5v4.159c0 4.142 3.357 7.5 7.5 7.5s7.5-3.358 7.5-7.5v-4.159a7.5 7.5 0 0 0-7.5-7.5z"/>
    <path d="M432.131 171.145a7.5 7.5 0 0 0-7.5 7.5v4.159c0 4.142 3.357 7.5 7.5 7.5s7.5-3.358 7.5-7.5v-4.159a7.5 7.5 0 0 0-7.5-7.5z"/>
    <path d="M166.954 222.529a7.5 7.5 0 0 0-9.77 4.131c-4.204 10.365-14.159 17.063-25.362 17.063-7.306 0-14.185-2.849-19.363-8.014a27.023 27.023 0 0 1-5.995-9.036 7.499 7.499 0 0 0-9.761-4.149 7.499 7.499 0 0 0-4.149 9.761c2.123 5.262 5.251 9.982 9.305 14.037 8.017 7.997 18.658 12.401 29.963 12.401 17.34 0 32.752-10.373 39.263-26.425a7.5 7.5 0 0 0-4.131-9.769z"/>
    <path d="M88.718 171.145a7.5 7.5 0 0 0-7.5 7.5v4.159c0 4.142 3.357 7.5 7.5 7.5s7.5-3.358 7.5-7.5v-4.159a7.5 7.5 0 0 0-7.5-7.5z"/>
    <path d="M174.926 171.145a7.5 7.5 0 0 0-7.5 7.5v4.159c0 4.142 3.357 7.5 7.5 7.5s7.5-3.358 7.5-7.5v-4.159a7.5 7.5 0 0 0-7.5-7.5z"/>
    <path d="M504.5 129.4a7.5 7.5 0 0 0 7.5-7.5v-20.81c0-29.561-24.05-53.61-53.61-53.61h-10.083l-1.224-2.83a38.404 38.404 0 0 0-35.263-23.16h-49.75c-52.946 0-96.021 43.074-96.021 96.02v153.14c0 22.2 18.061 40.26 40.26 40.26h42.9v10.59H171.63v-14.314a93.577 93.577 0 0 0 24.74-16.944c15.672-14.929 25.56-34.523 28.283-55.779 15.213-.015 27.584-12.396 27.584-27.613v-9.514c0-6.733-2.428-12.906-6.446-17.703l17.261-68.316a7.5 7.5 0 1 0-14.543-3.675l-15.979 63.241a27.456 27.456 0 0 0-7.098-1.148v-25.313a7.5 7.5 0 0 0-9.7-7.17c-41.101 12.609-77.123 11.943-104.17-1.931-20.262-10.394-28.667-24.724-28.73-24.834a7.502 7.502 0 0 0-14.041 3.672c0 18.578-3.966 22.603-23.575 23.926a7.5 7.5 0 0 0-6.995 7.483v24.168a27.457 27.457 0 0 0-7.851 1.379c-3.239-12.275-5.295-21.383-5.879-26.1-1.167-9.385-.358-37.367.052-47.356a7.91 7.91 0 0 0 .006-.308c0-12.28 9.99-22.27 22.271-22.27h11.37c1.989 0 3.896-.79 5.304-2.197l26.828-26.83c5.433-5.432 13.444-7.699 20.912-5.917l94.337 22.439a65.672 65.672 0 0 0 15.198 1.784c14.799 0 29.325-5.076 40.902-14.292.187-.149.42-.337.874-.043.453.292.38.58.322.809l-5.68 22.48a7.5 7.5 0 0 0 5.435 9.109 7.498 7.498 0 0 0 9.108-5.434l5.681-22.482c1.68-6.658-.965-13.365-6.736-17.087-5.774-3.724-12.976-3.364-18.347.915a50.867 50.867 0 0 1-31.56 11.027 50.69 50.69 0 0 1-11.725-1.376L114.71 25.544c-12.496-2.981-25.904.813-34.994 9.902L55.084 60.08H46.82c-20.497 0-37.183 16.632-37.271 37.109-.117 2.91-1.468 37.417.057 49.672.768 6.21 3.359 17.461 7.7 33.453a27.48 27.48 0 0 0-5.89 17.023v9.514c0 15.215 12.364 27.596 27.569 27.613 4.141 32.417 24.755 59.425 53.024 72.716v14.32H76.39c-4.582 0-9.097.507-13.498 1.5-3.661-6.401-10.544-10.734-18.432-10.734H26.195C11.751 312.266 0 324.017 0 338.461v40.803c0 10.542 6.263 19.643 15.26 23.794v79.951a7.5 7.5 0 0 0 7.5 7.5h218.13a7.5 7.5 0 0 0 7.5-7.5V382.63c0-18.4-8.183-34.914-21.087-46.13H349.21v3.74c0 21.632 32.468 40.348 36.17 42.411a7.5 7.5 0 0 0 7.301 0c3.701-2.063 36.158-20.78 36.158-42.411v-3.74h15.62c25.437 0 46.13 20.694 46.13 46.13v92.88h-21.022v-50.25c0-4.142-3.357-7.5-7.5-7.5s-7.5 3.358-7.5 7.5v50.25H323.49v-86.26a7.5 7.5 0 0 0-7.5-7.5H271a7.5 7.5 0 0 0-7.5 7.5 7.5 7.5 0 0 0 7.5 7.5h37.49v86.26a7.5 7.5 0 0 0 7.5 7.5h182.1a7.5 7.5 0 0 0 7.5-7.5V382.63c0-33.707-27.423-61.13-61.13-61.13h-15.62v-10.59h42.91c22.194 0 40.25-18.061 40.25-40.26V157.31c0-4.142-3.357-7.5-7.5-7.5s-7.5 3.358-7.5 7.5v16.975a27.415 27.415 0 0 0-14.373-4.551v-36.16c0-17.237-5.187-33.803-15-47.908a7.498 7.498 0 0 0-10.914-1.515c-32.938 27.027-74.579 41.911-117.253 41.911-11.826 0-23.615-1.118-35.04-3.323a7.501 7.501 0 0 0-8.911 6.981 74.251 74.251 0 0 0-.093 3.854v36.161a27.432 27.432 0 0 0-14.366 4.551V117.51c0-44.674 36.346-81.02 81.021-81.02h49.75a23.41 23.41 0 0 1 21.496 14.118l3.18 7.35a7.501 7.501 0 0 0 6.884 4.522h15.01c21.29 0 38.61 17.32 38.61 38.61v20.81a7.498 7.498 0 0 0 7.499 7.5zM53.329 226.576a7.5 7.5 0 0 0-7.49-7.113h-6.822c-6.948 0-12.601-5.658-12.601-12.613v-9.514c0-6.955 5.652-12.613 12.601-12.613h6.705a7.5 7.5 0 0 0 7.5-7.5v-24.891c15.63-2.231 24.427-8.32 28.249-20.189 5.344 5.164 12.666 10.96 22.271 16.017 35.02 18.437 75.794 14.311 106.69 6.194v22.869a7.5 7.5 0 0 0 7.5 7.5h6.692c6.954 0 12.612 5.658 12.612 12.613v9.514c0 6.955-5.658 12.613-12.612 12.613h-6.822a7.5 7.5 0 0 0-7.49 7.111c-1.046 20.129-9.672 38.883-24.288 52.807a78.46 78.46 0 0 1-24.749 15.975 4.207 4.207 0 0 0-.14.06 78.51 78.51 0 0 1-29.309 5.644 78.495 78.495 0 0 1-29.297-5.642c-.141-.062-.287-.116-.432-.17-27.401-11.185-47.151-37.389-48.768-68.672zm103.301 86.139v27.525c0 6.631-2.579 12.862-7.264 17.546-4.683 4.684-10.914 7.263-17.546 7.263-13.681 0-24.811-11.129-24.811-24.81V312.72a93.792 93.792 0 0 0 24.818 3.34 93.828 93.828 0 0 0 24.803-3.345zM15 379.265v-40.804c0-6.173 5.022-11.195 11.195-11.195H44.46a6.241 6.241 0 0 1 6.234 6.235v50.724a6.242 6.242 0 0 1-6.234 6.235H26.195c-6.173 0-11.195-5.022-11.195-11.195zm218.39 3.365v92.88h-21.027v-50.25c0-4.142-3.357-7.5-7.5-7.5s-7.5 3.358-7.5 7.5v50.25H66.281v-50.25c0-4.142-3.357-7.5-7.5-7.5s-7.5 3.358-7.5 7.5v50.25H30.26v-70.05h14.2c11.709 0 21.234-9.526 21.234-21.235v-46.472a46.218 46.218 0 0 1 10.695-1.253h15.62v3.74c0 21.951 17.859 39.81 39.811 39.81 10.639 0 20.637-4.14 28.153-11.657 7.517-7.517 11.656-17.515 11.656-28.153v-3.74h15.63c25.437 0 46.131 20.694 46.131 46.13zm180.45-42.39c0 8.314-13.497 20.06-24.81 27.142-11.321-7.084-24.82-18.829-24.82-27.142v-27.52a93.746 93.746 0 0 0 49.63-.008v27.528zM497 229.903v40.747c0 13.929-11.327 25.26-25.25 25.26h-24.706a94.664 94.664 0 0 0 6.535-5.67c15.67-14.938 25.558-34.533 28.281-55.777a27.433 27.433 0 0 0 15.14-4.56zm-200.777-45.18h6.692a7.5 7.5 0 0 0 7.5-7.5v-38.259a201.53 201.53 0 0 0 29.044 2.099c43.271 0 85.561-14.157 120.028-40.025 5.345 9.96 8.139 21.066 8.139 32.537v43.649a7.5 7.5 0 0 0 7.5 7.5h6.705c6.948 0 12.601 5.658 12.601 12.613v9.514c0 6.955-5.652 12.613-12.601 12.613h-6.822a7.5 7.5 0 0 0-7.49 7.111c-1.045 20.118-9.672 38.873-24.288 52.807a78.47 78.47 0 0 1-24.621 15.919 7.166 7.166 0 0 0-.394.168c-9.179 3.669-19.058 5.592-29.195 5.592a78.466 78.466 0 0 1-29.287-5.64c-.145-.064-.294-.119-.443-.174-27.394-11.186-47.139-37.389-48.755-68.67a7.5 7.5 0 0 0-7.49-7.113h-6.822c-6.954 0-12.612-5.658-12.612-12.613v-9.515h-.001c0-6.955 5.658-12.613 12.612-12.613zm-.031 49.74c3.186 24.946 16.131 46.688 34.804 61.447H306.31c-13.929 0-25.26-11.332-25.26-25.26v-40.746a27.445 27.445 0 0 0 15.142 4.559z"/>
</symbol><symbol id="icon-ice-skate" viewBox="-6 0 512 512.0003">
    <path d="M421.766 244.492h-33.438c-3.176 0-6.281-.25-9.394-.472-67.594-4.961-119.938-61.192-120.043-128.965V25.887C258.89 11.59 247.3 0 233.004 0c-2.453 0-4.895.348-7.25 1.035L102.875 36.871c-40.402 11.957-68.18 48.996-68.344 91.125V399.82a8.629 8.629 0 0 0 8.63 8.63h51.773v25.886c0 14.297-11.59 25.887-25.887 25.887H26.824c-12.879-.164-24.027 8.925-26.457 21.574-2.383 14.098 7.113 27.457 21.211 29.84 1.426.242 2.875.363 4.32.363h361.043a95.785 95.785 0 0 0 68.809-29.34c17.36-18.402 21.316-45.715 9.898-68.293l-2.953-5.918h29.184a8.629 8.629 0 0 0 8.629-8.629v-76.586c-.047-43.468-35.274-78.695-78.742-78.742zm0 17.258c33.941.04 61.445 27.543 61.484 61.484v33.438H243.031l-76.336-25.438a8.635 8.635 0 0 0-2.726-.449H51.789v-60.914c39.277-4.43 68.98-37.625 69.035-77.152V49.617l77.66-22.652V152.46c.094 80.98 65.72 146.61 146.7 146.7a34.88 34.88 0 0 0 32.03-21.013l7.173-16.562c1.328 0 2.59.2 3.941.2zm-195.668-58.676l32.62-19.574a148.9 148.9 0 0 0 8.665 14.395l-28.34 28.39a129.677 129.677 0 0 1-12.945-23.21zm-10.356-85.258l25.89-5.18v2.419c.02 5.554.36 11.101 1.009 16.617l-26.895 10.762v-24.618zm4.653 68.516a128.499 128.499 0 0 1-4.227-25.473l29.598-11.84a144.331 144.331 0 0 0 5.78 18.63zm21.238-91.297l-25.89 5.176V78.984l25.89-5.18zm83.27 152.098l-17.466 29.117a128.772 128.772 0 0 1-23.894-9.984l22.437-29.903a147.564 147.564 0 0 0 18.922 10.77zm16.136 6.652a146.102 146.102 0 0 0 25.25 6.13l-4.91 11.327a17.643 17.643 0 0 1-16.195 10.66 129.758 129.758 0 0 1-19.985-1.726zm-48.676-28.035l-23.117 30.824c-.078.113-.094.25-.164.363a130.178 130.178 0 0 1-19.164-17.156l28.215-28.207a146.827 146.827 0 0 0 14.23 14.176zM230.586 17.605c4.574-1.335 9.367 1.29 10.7 5.868a8.57 8.57 0 0 1 .347 2.414v30.316l-25.89 5.176V21.938zM103.562 54.84v137.879c-.035 30-22.082 55.426-51.773 59.715V127.996c.14-32.851 20.84-62.098 51.773-73.156zm346.649 367.234c8.176 16.043 5.414 35.492-6.906 48.625a78.451 78.451 0 0 1-56.364 24.043H25.898c-4.765.008-8.632-3.851-8.64-8.617 0-.512.043-1.02.133-1.523a9.361 9.361 0 0 1 9.433-7.118h42.223c23.816-.03 43.117-19.332 43.144-43.148v-25.887h17.262v25.887c.027 23.816 19.328 43.117 43.145 43.148h94.922c23.816-.03 43.117-19.332 43.144-43.148v-25.887h17.262v25.887c.027 23.816 19.328 43.117 43.144 43.148h18.121a48.333 48.333 0 0 0 35.192-15.265c10.332-11.246 11.996-27.961 4.09-41.024l-7.645-12.746h22.574zM163.969 408.45a8.629 8.629 0 0 0 8.629-8.629v-13.91L238.906 408a8.616 8.616 0 0 0 2.727.45h51.773v25.886c0 14.297-11.59 25.89-25.886 25.89h-94.922c-14.297 0-25.887-11.593-25.887-25.89v-25.887zm236.734 0l12.945 21.625a17.037 17.037 0 0 1-1.898 20.348 31.068 31.068 0 0 1-22.559 9.8h-18.12c-14.298 0-25.887-11.59-25.887-25.886v-25.887zm82.547-17.258H243.031l-76.336-25.441a8.546 8.546 0 0 0-7.765 1.176 8.626 8.626 0 0 0-3.59 7.004v17.261H51.79v-43.148h110.78l76.336 25.441a8.63 8.63 0 0 0 2.727.446H483.25zm0 0"/>
    <path d="M198.168 324.172l4.96-16.531 17.052 5.117-4.961 16.527zm0 0"/>
    <path d="M164.066 313.95l4.961-16.528 17.051 5.113-4.96 16.531zm0 0"/>
    <path d="M131.074 296.27h17.801v17.257h-17.8zm0 0"/>
    <path d="M232.27 334.402l15.515 4.649 4.082.363v-13.98l.871-2.914-15.515-4.653zm0 0"/>
    <path d="M95.477 296.27h17.804v17.257H95.477zm0 0"/>
    <path d="M412.059 322.156h17.804v17.258H412.06zm0 0"/>
    <path d="M269.668 322.156h17.8v17.258h-17.8zm0 0"/>
    <path d="M376.457 322.156h17.8v17.258h-17.8zm0 0"/>
    <path d="M447.656 322.156h17.801v17.258h-17.8zm0 0"/>
    <path d="M305.266 322.156h17.8v17.258h-17.8zm0 0"/>
    <path d="M340.86 322.156h17.8v17.258h-17.8zm0 0"/>
    <path d="M60.418 296.27h17.258v17.257H60.418zm0 0"/>
</symbol></svg>